<?xml version="1.0" encoding="utf-8"?>
<!-- Generator: Adobe Adobe Illustrator 24.2.0, SVG Export Plug-In . SVG Version: 6.00 Build 0)  -->
<svg version="1.1" id="Contours" xmlns="http://www.w3.org/2000/svg" xmlns:xlink="http://www.w3.org/1999/xlink" x="0px" y="0px"
	 width="644.3px" height="644.3px" viewBox="0 0 644.3 644.3" style="enable-background:new 0 0 644.3 644.3;" xml:space="preserve"
	>
<g>
	<path d="M642.8,300.3c-0.7-11-2.5-21.9-3.9-32.8c-2-16.3-6.6-32.1-11.8-47.6c-7-21-16.1-41-27.2-60.2
		c-12.4-21.5-27.6-40.8-44.2-59.1c-6.8-7.4-14.3-14.2-21.8-20.9c-5.7-5.1-11.7-10.1-18-14.5c-10.8-7.5-21.9-14.5-33-21.6
		c-15.3-9.8-31.8-17.2-48.8-23.4c-20.5-7.5-41.4-13.7-63.3-16.1c-11-1.2-21.9-3.4-32.8-3.8c-22-0.7-44-0.6-65.8,3.8
		c-9.6,1.9-19.4,2.7-28.8,5.4c-14.5,4.2-28.6,9.8-42.9,14.6c-17.6,5.8-33.7,14.9-49.2,24.7c-21.8,13.7-42.3,29.4-59.8,48.5
		c-5.8,6.3-12.4,12-17.5,18.8c-9.4,12.6-18.2,25.7-26.9,38.8c-12.9,19.4-22.1,40.7-29.8,62.6c-6.1,17.6-11.1,35.5-13,54.1
		c-1.3,12.1-3.4,24.2-3.8,36.3c-0.8,21.7,0.4,43.3,3.6,64.8c2.3,15.1,5.4,29.9,9.9,44.4c7.3,24.2,17.4,47.2,30.3,68.9
		c12.3,20.8,26.7,40,43.2,57.5c14,14.8,29.2,28.1,45.8,40.1c26.4,19.1,54.8,34.1,85.7,44.1c21.8,7,44.1,12.3,67.1,14.3
		c14.1,1.2,28.1,3.2,42.3,2c10.9-1,21.8-1.3,32.6-2.1c5.6-0.4,11.2-1,16.6-2.1c9.6-2,19.2-4.3,28.6-6.9c9.8-2.7,19.5-5.9,29.8-8.9
		c11.9-5.1,23.4-9.8,34.6-15.3c7.4-3.6,14.1-8.5,21.2-12.7c16.8-9.8,32.2-21.7,46.4-35c9.3-8.7,18.1-18,26.5-27.5
		c7.5-8.5,14.3-17.6,21.1-26.7c11.1-14.9,20-31.1,27.6-48c5.8-13.1,10.6-26.6,15.4-40.1c8.9-25.1,12.6-51.4,14.8-77.7
		C644.8,327.4,643.6,313.8,642.8,300.3z M627.7,341.7c-0.2,9.6-2.2,19.3-3.9,28.8c-2,11.4-4.1,22.9-7,34.1
		c-5.2,19.7-12.4,38.7-21.8,56.9c-9.2,17.7-19.2,34.9-32.3,50c-11.7,13.5-23.5,27-36.4,39.3c-15.1,14.4-32.4,26.5-50.6,36.8
		c-21,11.9-42.7,22.2-66.2,28.3c-13.2,3.4-26.5,6.2-39.8,8.9c-20.4,4.2-41.1,4.7-61.8,3.9c-11.3-0.5-22.5-2.6-33.8-3.8
		c-17.2-1.9-33.7-6.5-50-12c-23.3-7.8-45.6-17.6-65.8-31.6c-13.4-9.3-26.5-19.1-39.3-29.3c-15.5-12.4-28.1-27.5-40.4-43.1
		c-12.5-16-23-33.2-32-51.2c-9.8-19.7-17.4-40.3-22.2-61.7c-3.3-14.8-5-30-7.1-45c-0.8-5.8-0.9-11.7-1-17.6
		c-0.2-9.9-0.8-19.8,0.1-29.6c1.4-15.7,3.1-31.5,6.1-46.9c2.5-12.9,6.5-25.5,10.9-37.9c7.3-20.9,17.2-40.6,28.9-59.5
		c15-24.1,33.3-45.3,53.9-64.5c14.1-13.1,29.5-24.7,46.3-34.2c13.5-7.7,27.3-15.3,41.7-21.2c15.3-6.2,31.2-11.2,47.2-15
		c15.1-3.6,30.6-5.7,46-7.1c14.8-1.3,29.8-2,44.5-1c26.9,1.8,53.3,6.7,78.8,15.8C440,39.1,459,46.8,476.4,58
		c4.3,2.8,8.7,5.4,13.1,8.1c9.4,6.3,18.1,12.3,26,19.1c10.1,8.7,19.8,17.8,29.1,27.2c6.8,6.9,13.2,14.3,19.1,22.1
		c7.4,9.8,14.9,19.7,21.1,30.2c11.2,19,20.6,39,27.4,60.1c5.1,15.9,8.9,32.1,11.9,48.6C628.3,296,628.2,318.8,627.7,341.7z"/>
	<path d="M568.5,344.2c-4.4-3.2-9.1-6-14.1-8.1c-10.9-4.8-22.4-6.2-34.1-3.9c-6.5,1.2-12.9,3.4-19,6c-5.7,2.4-7.7,7.5-5.7,12
		c2.4,5.4,6.6,7,13,4.8c2.3-0.8,4.5-2.1,6.8-2.9c6.8-2.4,8.5-1,7.5,6.4c-0.1,0.6-0.4,1.1-0.6,1.7c-3.8,11.8-7.3,23.6-11.4,35.2
		c-5.8,16.4-14.4,31.5-25.2,45c-9.2,11.5-19.5,22.2-30.3,32.3c-7.9,7.4-17,13.9-26.4,19.4c-11.1,6.5-23,11.9-34.9,17
		c-7.9,3.4-16.3,5.8-24.7,7.7c-9.7,2.2-19.5,3.7-29.4,5c-7.8,1.1-15.8,2.1-23.6,1.9c-9.1-0.2-18.2-1.4-27.2-2.9
		c-10.2-1.7-20.4-3.7-30.2-6.7c-15.2-4.6-30-10.5-43.5-19.3c-9.8-6.3-19.7-12.6-28.6-20c-8.9-7.4-17.3-15.7-24.6-24.6
		c-8.8-10.7-17.2-22-23.9-34c-10.4-18.9-18.7-38.8-21.3-60.6c-0.4-3.7,0.6-5,4.2-3.9c3.2,1,6.4,2.2,9.6,3.3c6,2.1,11.2-0.1,13.6-5.9
		c1.6-3.7-1.2-8.5-6.3-11.1c-11.2-5.7-23.1-7.8-35.8-6.7c-2.7,0.7-5.2,1.2-7.6,1.8c-9,2-17.4,5.6-23.9,12.1
		c-1.9,1.9-2.5,6.2-1.9,8.9c0.8,3.6,3.7,7.1,8.2,5.8c4.5-1.3,8.8-3.6,13.2-5.6c4-1.9,7-0.5,7.8,3.9c0.7,3.7,1.1,7.5,2.1,11.1
		c6.5,23.8,14.8,47,29.1,67.4c9.3,13.3,19.4,26.2,30,38.5c5.2,6,12.2,10.5,18.4,15.7c12.4,10.3,25.5,19.2,40,26.3
		c13.5,6.7,27.2,12.4,41.7,16.4c18.6,5.2,37.6,8.3,57,8.2c7.2,0,14.4-0.5,21.6-1c7.1-0.5,14.3-0.6,21.1-2.1c18.1-4,36-8.9,53.1-16.5
		c24.4-10.8,46-25.8,65-44.3c9-8.8,16.9-18.8,24.8-28.6c11-13.7,19.5-29,25.7-45.3c5.9-15.3,9.6-31.3,14.2-47.1c1.2-4,3-5,7-3
		c3.2,1.6,6.2,3.4,9.4,5c4.6,2.2,8.8,1.3,11.2-2.2C572.4,352.8,572.2,346.9,568.5,344.2z"/>
	<path d="M222.1,277.6c4.7,7.7,10.2,14.7,19.9,15.3c11.2,0.7,17.2-7.2,22-15.7c10.6-19.1,13.8-40,14.1-62.1c-1-10.7-1.8-21-3-31.2
		c-1.6-13.4-5.9-25.8-14-36.6c-7.4-9.9-14.8-15.4-24-10.8c-5.8,2.9-11.1,8.3-14.7,13.8c-9.3,14.3-12.8,30.8-14,47.5
		c-0.9,12.3,0.1,24.8,0.8,37.2C210.1,250.1,214.2,264.5,222.1,277.6z"/>
	<path d="M360.2,230c1.3,10.2,3.3,20.5,6,30.4c2.9,10.9,7.6,21.2,17.1,28.3c6.5,4.9,13.5,6.8,22.5,0.1c8.6-6.4,12.5-15.9,16.1-25.2
		c6-15.5,7.7-32.1,8-48.5c0.2-9.9-1.6-19.8-2.8-29.7c-1.7-13.7-5.9-26.7-14-38.1c-4.8-6.8-10.8-11.7-20-12.2
		c-3.8,1.6-7.5,2.8-10.4,5c-10.2,7.6-14.1,19.2-17.4,30.6c-3.5,12.1-6.4,24.5-5.3,37.5C360.6,215.5,359.3,222.9,360.2,230z"/>
	<path d="M46.2,217.1c0.9,0.3,1.8,0.1,2.6-0.1c-0.2-0.4-0.4-0.9-0.6-1.3C47.6,215.9,46.9,216.2,46.2,217.1z"/>
</g>
</svg>
